<svg width="171" height="99" viewBox="0 0 171 99" fill="none" xmlns="http://www.w3.org/2000/svg">
<path d="M32.2174 22.5296H30.753H27.0356H23.2055H18.0237H9.01186H0.337945H0V78.8537H9.01186H9.5751H18.587V37.1739C18.587 35.7095 19.1502 34.245 20.3893 33.0059C21.4032 31.7668 22.9802 31.2035 25.1206 31.0909C27.0356 31.2035 28.5 31.8794 29.6265 33.0059C30.9783 34.245 31.6542 36.0474 31.6542 38.3004V78.8537H40.666H41.2293H50.2411V40.5533C50.2411 34.245 48.7767 29.6265 45.7352 26.8102C42.8063 23.994 38.3004 22.5296 32.2174 22.5296Z" fill="white"/>
<path d="M166.381 26.8103C163.34 23.994 158.496 22.5296 151.85 22.5296H151.512H147.794H142.838H138.783H129.771H121.097H120.759V98.004H129.771H130.334H139.346V78.8538H142.838H151.85C158.383 78.8538 163.227 77.3893 166.269 74.5731C169.423 71.7569 171 67.1383 171 60.83V40.5533C171 34.1324 169.423 29.6265 166.381 26.8103ZM139.346 70.4051V37.1739C139.346 35.7095 139.909 34.245 141.148 33.0059C142.162 31.8794 143.626 31.3162 145.429 31.0909C147.457 31.3162 149.146 31.8794 150.273 32.8933C151.737 34.1324 152.413 35.9348 152.413 38.3004V63.083C152.413 65.4486 151.737 67.251 150.273 68.4901C148.808 69.7293 146.781 70.4051 143.964 70.4051H139.346Z" fill="white"/>
<path d="M93.3854 22.5297H92.5968H87.415H83.585H78.9664V0H69.9545H69.3913H60.3794V78.8538H69.3913H69.9545H78.9664V36.836C79.079 35.3716 79.6423 34.1324 80.8814 32.8933C81.8953 31.7668 83.4723 31.2036 85.5 31.0909C87.415 31.2036 88.8794 31.8795 90.0059 33.0059C91.3577 34.2451 92.0336 36.0474 92.0336 38.3004V78.8538H101.045H101.609H110.621V40.5534C110.621 34.2451 109.156 29.6265 106.115 26.8103C103.298 24.1067 99.0178 22.6423 93.3854 22.5297Z" fill="white"/>
</svg>
